<?xml version="1.0" encoding="utf-8"?>
<!-- Generator: Adobe Illustrator 26.0.1, SVG Export Plug-In . SVG Version: 6.00 Build 0)  -->
<svg version="1.1" id="Layer_1" xmlns="http://www.w3.org/2000/svg" xmlns:xlink="http://www.w3.org/1999/xlink" x="0px" y="0px"
	 viewBox="0 0 700 700" style="enable-background:new 0 0 700 700;" xml:space="preserve">
<path d="M469.4,551.1H230.9c-4.1,0-7.5-3.4-7.5-7.5V303.7C222.8,191.4,266.2,83.2,344.3,2.4c1.4-1.4,3.4-2.2,5.4-2.4
	c2.1,0,4,0.8,5.4,2.2c78.5,80.9,122.1,189.4,121.6,302.1v239.4c0,1.9-0.8,3.8-2.2,5.3S471.3,551.1,469.4,551.1L469.4,551.1z
	 M238.4,536.3h223.4V304.4c0-106-40.1-208.1-112-286.2C277.7,95.8,238,197.7,238.4,303.7V536.3z"/>
<path d="M350.2,178.8c-33.7-0.5-65.9-13.7-90.2-36.9c-1.4-1.3-2.4-3.2-2.4-5.1c-0.2-1.9,0.6-3.8,1.9-5.4c2.7-3,7.5-3.2,10.5-0.5
	c21.2,21.1,50.1,33,80,33c30,0.2,58.7-11.7,80.3-32.6c3-2.6,7.7-2.4,10.4,0.6s2.6,7.5-0.3,10.4C415.9,165.3,383.7,178.4,350.2,178.8
	L350.2,178.8z"/>
<path d="M350.2,342.5c-13.9,0-27.1-5.4-36.9-15.3c-9.7-9.7-15.3-23-15.3-36.9s5.4-27.1,15.3-36.9c9.7-9.7,23-15.3,36.9-15.3
	s27.1,5.4,36.9,15.3c9.7,9.7,15.3,23,15.3,36.9c0,13.9-5.4,27.1-15.3,36.9C377.3,337.1,364,342.5,350.2,342.5z M350.2,253.1
	c-9.9,0-19.3,4-26.3,10.9c-7,6.9-10.9,16.4-10.9,26.3s4,19.3,10.9,26.3c7,7,16.4,10.9,26.3,10.9s19.3-4,26.3-10.9
	c7-7,10.9-16.4,10.9-26.3s-4-19.3-10.9-26.3C369.6,257,360.1,253.1,350.2,253.1z"/>
<path d="M562.6,580.9c-3,0-5.7-1.8-6.9-4.6c-16.1-38.5-48.5-67.5-88.6-79.3c-1.9-0.6-3.5-1.9-4.5-3.7c-1-1.8-1.1-3.8-0.6-5.7
	c0.6-1.9,1.9-3.5,3.7-4.5c1.8-1,3.8-1.1,5.7-0.5c38.1,11.3,70.2,37,89.9,71.5c3.2-11.7,4.8-23.6,4.8-35.8
	c-0.3-29.7-10.1-58.4-27.9-82c-17.9-23.6-42.8-41-71.2-49.5c-4-1.1-6.2-5.3-4.9-9.3c1.1-4,5.3-6.2,9.3-4.9
	c31.4,9.4,59.1,28.6,78.7,54.7c19.8,26.2,30.5,58.1,30.8,90.8c0,19.9-3.8,39.6-11.7,57.9C568.3,579,565.6,580.9,562.6,580.9
	L562.6,580.9z"/>
<path d="M137.7,580.9c-3,0-5.7-1.8-6.9-4.6c-7.7-18.4-11.7-38.1-11.7-57.9c0.3-32.9,11.2-64.6,30.8-90.8
	c19.8-26.2,47.2-45.5,78.7-54.9c4-1.1,8.1,1.1,9.3,4.9c1.1,4-1.1,8.1-4.9,9.3c-28.4,8.5-53.3,25.9-71.2,49.5
	c-17.9,23.6-27.6,52.3-27.9,82c0,12.1,1.6,24.1,4.8,35.8c19.6-34.5,51.9-60.2,89.9-71.5c1.9-0.6,4-0.3,5.7,0.5c1.8,1,3,2.6,3.7,4.5
	c0.6,1.9,0.3,4-0.6,5.7c-1,1.8-2.6,3-4.5,3.7c-39.9,11.8-72.5,41-88.6,79.5C143.5,579,140.8,580.9,137.7,580.9L137.7,580.9z"/>
<path d="M349.8,700c-1.3,0-2.7-0.3-3.8-1c-48.2-29.2-77.6-81.4-77.7-137.7v-17.7c0-4.1,3.4-7.5,7.5-7.5h148.9c1.9,0,3.8,0.8,5.3,2.2
	c1.4,1.4,2.2,3.4,2.2,5.3v17.2c-0.2,56.5-29.8,108.8-78.2,137.9C352.6,699.7,351.3,700,349.8,700L349.8,700z M283.1,551.1v10.2
	c0.2,49.5,25.2,95.6,66.7,122.6c41.8-27,67.2-73.1,67.4-122.9v-9.9H283.1z"/>
</svg>
