<?xml version="1.0" encoding="utf-8"?>
<!-- Generator: Adobe Illustrator 26.0.1, SVG Export Plug-In . SVG Version: 6.00 Build 0)  -->
<svg version="1.1" id="Layer_1" xmlns="http://www.w3.org/2000/svg" xmlns:xlink="http://www.w3.org/1999/xlink" x="0px" y="0px"
	 viewBox="0 0 700 700" style="enable-background:new 0 0 700 700;" xml:space="preserve">
<path d="M296.6,580.6c-4.1,0-7.4-3.3-7.4-7.4V288.6c0-4.1,3.3-7.4,7.4-7.4s7.4,3.3,7.4,7.4v284.6C304,577.3,300.7,580.6,296.6,580.6
	L296.6,580.6z"/>
<path d="M418.4,296H281.5c-4.1,0-7.4-3.3-7.4-7.4s3.3-7.4,7.4-7.4h136.9c4.1,0,7.4,3.3,7.4,7.4S422.5,296,418.4,296L418.4,296z"/>
<path d="M418.4,580.6H281.5c-4.1,0-7.4-3.3-7.4-7.4s3.3-7.4,7.4-7.4h136.9c4.1,0,7.4,3.3,7.4,7.4S422.5,580.6,418.4,580.6
	L418.4,580.6z"/>
<path d="M403.4,580.6c-4.1,0-7.4-3.3-7.4-7.4V288.6c0-4.1,3.3-7.4,7.4-7.4s7.4,3.3,7.4,7.4v284.6
	C410.8,577.3,407.4,580.6,403.4,580.6L403.4,580.6z"/>
<path d="M491,580.6c-4.1,0-7.4-3.3-7.4-7.4V288.6c0-4.1,3.3-7.4,7.4-7.4s7.4,3.3,7.4,7.4v284.6C498.4,577.3,495.1,580.6,491,580.6
	L491,580.6z"/>
<path d="M612.8,296H476.1c-4.1,0-7.4-3.3-7.4-7.4s3.3-7.4,7.4-7.4H613c4.1,0,7.4,3.3,7.4,7.4C620.2,292.7,617,296,612.8,296z"/>
<path d="M612.8,580.6H476.1c-4.1,0-7.4-3.3-7.4-7.4s3.3-7.4,7.4-7.4H613c4.1,0,7.4,3.3,7.4,7.4C620.2,577.3,617,580.6,612.8,580.6
	L612.8,580.6z"/>
<path d="M597.9,580.6c-4.1,0-7.4-3.3-7.4-7.4V288.6c0-4.1,3.3-7.4,7.4-7.4s7.4,3.3,7.4,7.4v284.6
	C605.2,577.3,601.9,580.6,597.9,580.6L597.9,580.6z"/>
<path d="M102.1,580.6c-4.1,0-7.4-3.3-7.4-7.4V288.6c0-4.1,3.3-7.4,7.4-7.4s7.4,3.3,7.4,7.4v284.6
	C109.5,577.3,106.2,580.6,102.1,580.6L102.1,580.6z"/>
<path d="M223.9,296H87c-4.1,0-7.4-3.3-7.4-7.4s3.3-7.4,7.4-7.4h136.9c4.1,0,7.4,3.3,7.4,7.4C231.3,292.7,228,296,223.9,296z"/>
<path d="M223.9,580.6H87c-4.1,0-7.4-3.3-7.4-7.4s3.3-7.4,7.4-7.4h136.9c4.1,0,7.4,3.3,7.4,7.4S228,580.6,223.9,580.6z"/>
<path d="M209,580.6c-4.1,0-7.4-3.3-7.4-7.4V288.6c0-4.1,3.3-7.4,7.4-7.4c4.1,0,7.4,3.3,7.4,7.4v284.6
	C216.4,577.3,213.1,580.6,209,580.6L209,580.6z"/>
<path d="M640.5,640.9h-581c-4.1,0-7.4-3.3-7.4-7.4s3.3-7.4,7.4-7.4h581c4.1,0,7.4,3.3,7.4,7.4S644.6,640.9,640.5,640.9z"/>
<path d="M683,700H17c-4.1,0-7.4-3.3-7.4-7.4s3.3-7.4,7.4-7.4h666c4.1,0,7.4,3.3,7.4,7.4S687.1,700,683,700z"/>
<path d="M625.7,235.6H74.3c-3.2,0-5.9-1.9-7-4.9s-0.1-6.3,2.3-8.2L345.3,1.6c2.7-2.2,6.6-2.2,9.2,0l275.9,220.9
	c2.5,1.9,3.4,5.2,2.3,8.2C631.8,233.7,628.9,235.6,625.7,235.6L625.7,235.6z M95.2,220.9h509.5L350,16.9L95.2,220.9z"/>
</svg>
