<?xml version="1.0" encoding="utf-8"?>
<!-- Generator: Adobe Illustrator 26.0.1, SVG Export Plug-In . SVG Version: 6.00 Build 0)  -->
<svg version="1.1" id="Layer_1" xmlns="http://www.w3.org/2000/svg" xmlns:xlink="http://www.w3.org/1999/xlink" x="0px" y="0px"
	 viewBox="0 0 700 700" style="enable-background:new 0 0 700 700;" xml:space="preserve">
<path d="M349.7,700c-1.4,0-2.9-0.3-4.2-0.8c-167.4-84-271.3-242.6-271.3-413.8V141.5c0-2.9,1.6-5.4,4.2-6.7l267.8-134
	c1.1-0.5,2.2-0.8,3.4-0.8c1.6,0,3,0.3,4.5,0.8l267.8,133.8l0,0c2.6,1.3,4.2,3.8,4,6.7v143.6c0,171.4-104.3,330.1-272,414.1
	C352.4,699.7,351.1,700,349.7,700L349.7,700z M89.2,146v139.4c0,164.7,99.8,317.3,260.5,399.3c161.1-81.9,261.1-234.8,261.1-399.6
	V146L350,15.5L89.2,146z"/>
<path d="M350,506.6c-41.5,0-81.3-16.4-110.7-45.8s-45.8-69.2-45.8-110.7s16.4-81.3,45.8-110.7s69.2-45.8,110.7-45.8
	s81.3,16.4,110.7,45.8c29.4,29.4,45.8,69.2,45.8,110.7s-16.6,81.3-45.8,110.7C431.3,490,391.5,506.6,350,506.6z M350,208.4
	c-37.5,0-73.6,14.9-100.1,41.5c-26.5,26.5-41.5,62.6-41.5,100.1s14.9,73.6,41.5,100.1c26.5,26.5,62.6,41.5,100.1,41.5
	s73.6-14.9,100.1-41.5c26.5-26.5,41.5-62.6,41.5-100.1s-15-73.5-41.5-100.1C423.5,223.4,387.5,208.6,350,208.4L350,208.4z"/>
<path d="M320.1,402.3c-1.9,0-3.8-0.8-5.3-2.2L285,370.2c-2.9-2.9-2.9-7.7,0-10.5c2.9-2.9,7.7-2.9,10.5,0l24.6,24.4l84.2-84.2l0,0
	c2.9-2.9,7.7-2.9,10.5,0c2.9,2.9,2.9,7.7,0,10.5l-89.4,89.4C324.1,401.5,322.2,402.3,320.1,402.3L320.1,402.3z"/>
</svg>
